<?xml version="1.0" encoding="iso-8859-1"?>
<!-- Generator: Adobe Illustrator 19.0.0, SVG Export Plug-In . SVG Version: 6.00 Build 0)  -->
<svg version="1.1" id="Capa_1" xmlns="http://www.w3.org/2000/svg" xmlns:xlink="http://www.w3.org/1999/xlink" x="0px" y="0px"
	 viewBox="0 0 512 512" style="enable-background:new 0 0 512 512;" xml:space="preserve">
<circle style="fill:#77D057;" cx="123.34" cy="94.23" r="81.28"/>
<path style="fill:#69B749;" d="M123.336,12.952c-9.871,0-19.329,1.763-28.081,4.985c31.05,11.432,53.197,41.275,53.197,76.293
	s-22.147,64.86-53.197,76.293c8.752,3.223,18.21,4.985,28.081,4.985c44.889,0,81.278-36.389,81.278-81.278
	S168.225,12.952,123.336,12.952z"/>
<circle style="fill:#F0FFE9;" cx="123.34" cy="94.23" r="56.16"/>
<path style="fill:#E5F9F6;" d="M123.446,100.959l54.697,376.445c2.254,15.513,15.553,27.019,31.228,27.019h174.537
	c15.675,0,28.975-11.506,31.228-27.019l54.697-376.445c0.907-6.24-3.932-11.832-10.237-11.832H133.683
	C127.378,89.127,122.539,94.719,123.446,100.959z"/>
<path style="fill:#D6E5E2;" d="M459.597,89.127h-44.692l-57.703,397.134c-1.515,10.427-10.455,18.162-20.991,18.162h47.698
	c15.675,0,28.975-11.506,31.229-27.019l54.697-376.445C470.741,94.719,465.902,89.127,459.597,89.127z"/>
<path style="fill:#772424;" d="M130.107,146.803l48.036,330.6c2.254,15.512,15.553,27.019,31.229,27.019h174.537
	c15.675,0,28.975-11.507,31.228-27.019l48.036-330.6L130.107,146.803L130.107,146.803z"/>
<path style="fill:#681818;" d="M413.078,484.896c0.972-2.36,1.677-4.867,2.058-7.493l48.036-330.6h-56.648l-49.323,339.458
	c-1.515,10.427-10.455,18.162-20.991,18.162h47.698C396.931,504.423,408.306,496.478,413.078,484.896z"/>
<path style="fill:#933535;" d="M257.996,504.423l-7.586-157.318c-1.205-24.993-23.926-46.23-50.689-46.23
	c-23,0-39.974,15.69-42.002,35.964l20.424,140.566c2.254,15.513,15.553,27.019,31.229,27.019L257.996,504.423L257.996,504.423z"/>
<path style="fill:#9B4848;" d="M296.64,300.874c-26.764,0-47.435,21.237-46.23,46.23l7.586,157.318h77.287l7.586-157.318
	C344.076,322.112,323.403,300.874,296.64,300.874z"/>
<path style="fill:#933535;" d="M383.908,504.423c15.675,0,28.975-11.506,31.228-27.019l20.424-140.566
	c-2.028-20.274-19.002-35.963-42.002-35.963c-26.764,0-49.484,21.237-50.689,46.23l-7.586,157.318H383.908z"/>
<path style="fill:#772424;" d="M435.561,336.837c-2.028-20.274-19.002-35.963-42.002-35.963c-3.255,0-6.449,0.32-9.554,0.917
	l-26.803,184.47c-1.515,10.427-10.454,18.161-20.99,18.162h47.696c0.001,0,0.003,0,0.004,0c0.731,0,1.456-0.033,2.176-0.083
	c0.135-0.009,0.27-0.017,0.404-0.028c0.693-0.057,1.381-0.135,2.062-0.236c0.127-0.019,0.253-0.041,0.38-0.061
	c0.703-0.113,1.401-0.242,2.089-0.401c0.002,0,0.003-0.001,0.005-0.001c0.696-0.161,1.382-0.352,2.061-0.558
	c0.112-0.034,0.225-0.067,0.337-0.103c0.659-0.209,1.309-0.437,1.949-0.687c0.092-0.036,0.184-0.075,0.276-0.112
	c1.333-0.536,2.623-1.158,3.862-1.865c0.071-0.041,0.143-0.081,0.214-0.122c0.616-0.357,1.219-0.734,1.808-1.131
	c0.045-0.03,0.089-0.062,0.134-0.092c1.218-0.831,2.376-1.744,3.465-2.735c0.029-0.026,0.058-0.052,0.087-0.079
	c0.55-0.504,1.083-1.026,1.596-1.568c0.003-0.004,0.007-0.007,0.01-0.011c1.047-1.107,2.016-2.29,2.897-3.543
	c0.004-0.005,0.007-0.01,0.011-0.015c1.324-1.885,2.449-3.925,3.343-6.093c0.001-0.002,0.001-0.004,0.002-0.006
	c0.477-1.157,0.887-2.35,1.228-3.574c0.02-0.071,0.038-0.144,0.057-0.216c0.135-0.497,0.256-1.001,0.367-1.508
	c0.03-0.139,0.061-0.277,0.09-0.416c0.12-0.586,0.228-1.177,0.315-1.776L435.561,336.837z"/>
<path style="fill:#D6E5E2;" d="M395.321,472.015H197.959c-8.095,0-15.625-2.72-21.666-7.34l1.849,12.729
	c2.254,15.513,15.553,27.019,31.229,27.019h174.537c15.675,0,28.975-11.506,31.228-27.019l1.85-12.729
	C410.946,469.294,403.416,472.015,395.321,472.015z"/>
<path style="fill:#CBD1CF;" d="M383.914,504.422c0.731,0,1.454-0.033,2.174-0.083c0.135-0.009,0.27-0.017,0.404-0.028
	c0.693-0.057,1.381-0.135,2.062-0.236c0.127-0.019,0.253-0.041,0.38-0.061c0.703-0.113,1.401-0.242,2.089-0.401
	c0.002,0,0.003-0.001,0.005-0.001c0.696-0.161,1.382-0.352,2.061-0.558c0.112-0.034,0.225-0.067,0.337-0.103
	c0.659-0.209,1.309-0.437,1.949-0.687c0.092-0.036,0.184-0.075,0.276-0.112c1.333-0.536,2.623-1.158,3.862-1.865
	c0.071-0.041,0.143-0.081,0.214-0.122c0.616-0.357,1.219-0.734,1.808-1.131c0.045-0.03,0.089-0.062,0.134-0.092
	c1.218-0.831,2.376-1.744,3.465-2.735c0.029-0.026,0.058-0.052,0.087-0.079c0.55-0.504,1.083-1.026,1.596-1.568
	c0.003-0.004,0.007-0.007,0.01-0.011c1.047-1.106,2.016-2.29,2.897-3.543c0-0.001,0.001-0.002,0.002-0.002
	c0.003-0.004,0.006-0.009,0.009-0.013c1.324-1.884,2.449-3.924,3.342-6.092c0-0.001,0.001-0.002,0.001-0.003
	c0.001-0.001,0.001-0.003,0.002-0.004c0.477-1.157,0.887-2.35,1.228-3.574c0.02-0.073,0.038-0.146,0.058-0.219
	c0.134-0.495,0.255-0.997,0.365-1.502c0.02-0.091,0.04-0.182,0.059-0.273c0.01-0.049,0.022-0.098,0.032-0.147
	c0.12-0.586,0.228-1.177,0.315-1.776l1.85-12.729c-6.041,4.62-13.57,7.34-21.665,7.34h-36.049l-2.07,14.246
	c-1.515,10.427-10.454,18.161-20.99,18.162h47.696l0,0C383.911,504.423,383.912,504.422,383.914,504.422z"/>
<path d="M125.927,62.1c-0.668-4.131-4.558-6.939-8.69-6.271s-6.939,4.559-6.271,8.69l0.629,3.895
	c0.668,4.131,4.558,6.939,8.69,6.271s6.939-4.559,6.271-8.69L125.927,62.1z"/>
<path d="M104.115,97.092c-0.668-4.131-4.558-6.939-8.69-6.271l-3.894,0.63c-4.132,0.668-6.939,4.559-6.271,8.69
	c0.668,4.131,4.558,6.939,8.69,6.271l3.894-0.63C101.975,105.114,104.783,101.223,104.115,97.092z"/>
<path d="M93.781,81.94l3.199,2.309c1.697,1.225,3.729,1.646,5.644,1.336c1.914-0.309,3.711-1.349,4.935-3.046
	c2.45-3.394,1.684-8.13-1.709-10.579l-3.199-2.309c-3.393-2.449-8.13-1.685-10.579,1.709C89.622,74.755,90.388,79.491,93.781,81.94z
	"/>
<path d="M146.015,62.64c-3.394-2.449-8.131-1.683-10.579,1.711l-2.308,3.199c-2.449,3.394-1.683,8.13,1.711,10.579
	c1.697,1.224,3.729,1.645,5.643,1.336s3.712-1.35,4.936-3.047l2.308-3.199C150.175,69.825,149.409,65.089,146.015,62.64z"/>
<path d="M111.97,109.818c-3.394-2.449-8.13-1.683-10.58,1.71l-2.308,3.199c-2.449,3.393-1.683,8.13,1.71,10.579
	c1.697,1.224,3.73,1.645,5.644,1.336c1.914-0.309,3.711-1.35,4.936-3.046l2.308-3.199
	C116.129,117.004,115.364,112.267,111.97,109.818z"/>
<path d="M473.15,87.745c-3.406-3.938-8.347-6.196-13.554-6.196h-62.455l19.197-64.578c0.318-1.07,1.319-1.816,2.435-1.816h37.982
	c4.185,0,7.578-3.393,7.578-7.578S460.941,0,456.756,0h-37.982c-7.773,0-14.748,5.204-16.963,12.653L381.33,81.549H211.249
	c-6.191-43.248-43.497-76.174-87.913-76.174c-48.996,0-88.856,39.861-88.856,88.856s39.86,88.855,88.856,88.855
	c1.435,0,2.896-0.051,4.367-0.126l42.94,295.533C173.421,497.595,190.069,512,209.372,512h174.537
	c19.302,0,35.951-14.405,38.728-33.507l28.52-196.284l0,0c0-0.001,0,0.001,0,0l0,0c0.602-4.142-2.267-7.987-6.409-8.588
	c-4.133-0.604-7.987,2.267-8.588,6.409l-4.345,29.903c-9.057-10.313-22.708-16.636-38.254-16.636
	c-20.654,0-39.227,10.858-49.613,26.931c-2.069-3.637-4.604-7.06-7.591-10.194c-10.285-10.793-24.389-16.737-39.715-16.737
	s-29.43,5.944-39.715,16.737c-2.986,3.134-5.522,6.557-7.591,10.194c-10.387-16.073-28.96-26.931-49.613-26.931
	c-15.546,0-29.197,6.323-38.254,16.636l-22.602-155.552h37.51c4.185,0,7.578-3.393,7.578-7.578s-3.392-7.578-7.578-7.578h-39.712
	l-5.718-39.357c-0.158-1.089,0.336-1.851,0.646-2.208c0.309-0.357,0.992-0.957,2.092-0.957h243.143l-12.641,42.521H211.633
	c-4.185,0-7.578,3.393-7.578,7.578s3.392,7.578,7.578,7.578h242.782c0.009,0-84.583,0.002-84.574,0.002
	c0.008,0,84.566-0.002,84.574-0.002l0,0l-13.105,90.197c-0.602,4.142,2.267,7.987,6.409,8.588c4.128,0.602,7.987-2.268,8.588-6.409
	l21.026-144.709C478.082,96.896,476.557,91.683,473.15,87.745z M383.908,496.845H209.372c-11.283,0-21.067-8.04-23.423-18.94
	c3.861,1.114,7.89,1.687,12.01,1.687h197.362c4.121,0,8.15-0.573,12.01-1.687C404.976,488.805,395.191,496.845,383.908,496.845z
	 M393.559,308.452c18.256,0,32.258,11.575,34.363,28.261l0,0l-17.957,123.583c-4.405,2.707-9.408,4.141-14.644,4.141h-50.523
	l5.641-116.967C351.459,326.32,371.206,308.452,393.559,308.452z M267.897,320.489c7.396-7.762,17.604-12.037,28.743-12.037
	s21.347,4.275,28.743,12.037c6.865,7.204,10.387,16.526,9.918,26.251l-5.676,117.698h-65.971l-5.676-117.698
	C257.51,337.015,261.031,327.692,267.897,320.489z M199.721,308.452c22.353,0,42.1,17.868,43.12,39.018l5.641,116.967h-50.523
	c-5.236,0-10.239-1.435-14.645-4.142l-17.957-123.582l0,0C167.463,320.027,181.465,308.452,199.721,308.452z M133.683,81.549
	c-5.207,0-10.147,2.258-13.553,6.196c-3.407,3.938-4.931,9.151-4.182,14.304l5.918,40.729c-26.11-0.782-47.113-22.251-47.113-48.547
	c0-26.79,21.794-48.585,48.584-48.585c22.454,0,41.344,14.95,46.907,35.903H133.683z M185.784,81.549
	c-2.649-13.112-9.361-25.093-19.341-34.265c-11.784-10.83-27.092-16.794-43.106-16.794c-35.146,0-63.739,28.594-63.739,63.74
	s28.594,63.739,63.739,63.739c0.242,0,0.49-0.009,0.734-0.012l1.443,9.935c-0.732,0.023-1.459,0.038-2.178,0.038
	c-40.639,0-73.701-33.062-73.701-73.7s33.063-73.7,73.701-73.7c36.099,0,66.537,26.219,72.579,61.019H185.784z M462.335,99.869
	l-5.718,39.357h-76.621l12.64-42.521h66.96c1.101,0,1.784,0.599,2.093,0.957C461.999,98.018,462.493,98.78,462.335,99.869z"/>
<g>
</g>
<g>
</g>
<g>
</g>
<g>
</g>
<g>
</g>
<g>
</g>
<g>
</g>
<g>
</g>
<g>
</g>
<g>
</g>
<g>
</g>
<g>
</g>
<g>
</g>
<g>
</g>
<g>
</g>
</svg>
