<?xml version="1.0" encoding="iso-8859-1"?>
<!-- Generator: Adobe Illustrator 19.0.0, SVG Export Plug-In . SVG Version: 6.00 Build 0)  -->
<svg version="1.1" id="Capa_1" xmlns="http://www.w3.org/2000/svg" xmlns:xlink="http://www.w3.org/1999/xlink" x="0px" y="0px"
	 viewBox="0 0 512 512" style="enable-background:new 0 0 512 512;" xml:space="preserve">
<path style="fill:#B3640D;" d="M158.118,212.69h333.067c7.338,0,13.286-5.948,13.286-13.286v-33.646
	c0-7.338-5.948-13.286-13.286-13.286H158.118H52.706H17.458c-5.483,0-9.928,4.445-9.928,9.928v40.38
	c0,5.483,4.445,9.928,9.928,9.928h35.249"/>
<path style="fill:#DE9C2F;" d="M325.648,152.471c16.634,0,30.118,13.484,30.118,30.118s-13.484,30.118-30.118,30.118H203.295
	c-16.634,0-30.118-13.484-30.118-30.118s13.484-30.118,30.118-30.118"/>
<g>
	<path style="fill:#D37E0E;" d="M195.765,182.588c0-16.634,13.484-30.118,30.118-30.118h-22.588
		c-16.634,0-30.118,13.484-30.118,30.118s13.484,30.118,30.118,30.118h22.588C209.249,212.706,195.765,199.222,195.765,182.588z"/>
	<path style="fill:#D37E0E;" d="M335.059,182.588c0-16.634-13.484-30.118-30.118-30.118h22.588
		c16.634,0,30.118,13.484,30.118,30.118s-13.484,30.118-30.118,30.118h-22.588C321.576,212.706,335.059,199.222,335.059,182.588z"/>
</g>
<path style="fill:#984F02;" d="M39.53,202.778v-40.38c0-5.483,4.444-9.928,9.928-9.928h-32c-5.483,0-9.928,4.444-9.928,9.928v40.38
	c0,5.483,4.444,9.928,9.928,9.928h32C43.974,212.706,39.53,208.262,39.53,202.778z"/>
<rect x="39.525" y="152.466" style="fill:#DD2323;" width="37.647" height="60.235"/>
<rect x="120.471" y="152.466" style="fill:#984F02;" width="37.647" height="60.235"/>
<path style="fill:#B3640D;" d="M119.431,504.471H91.394c-8.891,0-16.099-7.208-16.099-16.099V23.628
	c0-8.891,7.208-16.099,16.099-16.099h28.038c8.891,0,16.099,7.208,16.099,16.099v464.743
	C135.53,497.262,128.322,504.471,119.431,504.471z"/>
<path style="fill:#984F02;" d="M98.037,488.372V23.628c0-8.891,7.208-16.099,16.099-16.099H91.394
	c-8.891,0-16.099,7.208-16.099,16.099v464.743c0,8.891,7.208,16.099,16.099,16.099h22.743
	C105.245,504.471,98.037,497.262,98.037,488.372z"/>
<rect x="75.295" y="37.647" style="fill:#FE3934;" width="60.235" height="30.118"/>
<rect x="75.295" y="37.647" style="fill:#DD2323;" width="22.588" height="30.118"/>
<rect x="75.295" y="71.529" style="fill:#FFFFFF;" width="60.235" height="30.118"/>
<rect x="75.295" y="71.529" style="fill:#E3F0FB;" width="22.588" height="30.118"/>
<g>
	<rect x="97.883" y="453.642" style="fill:#FFFFFF;" width="15.059" height="15.059"/>
	<rect x="97.883" y="423.524" style="fill:#FFFFFF;" width="15.059" height="15.059"/>
</g>
<path d="M119.431,0H91.394C78.366,0,67.765,10.599,67.765,23.628v464.743c0,13.029,10.6,23.628,23.628,23.628h28.038
	c13.029,0,23.628-10.599,23.628-23.628V23.628C143.059,10.599,132.459,0,119.431,0z M91.394,15.059h28.038
	c4.725,0,8.569,3.844,8.569,8.569V32h-7.529v15.059h7.529v15.059H82.824V47.059h22.588V32H82.824v-8.372
	C82.824,18.903,86.668,15.059,91.394,15.059z M119.431,496.941H91.394c-4.725,0-8.569-3.844-8.569-8.569V107.294h7.529V92.235
	h-7.529V77.176h45.176v15.059h-22.588v15.059h22.588v381.078C128.001,493.097,124.156,496.941,119.431,496.941z"/>
<path d="M0.001,162.398v40.38c0,9.626,7.832,17.457,17.457,17.457h35.249v-15.059h-7.529v-22.588H30.118v22.588h-12.66
	c-1.322,0-2.398-1.076-2.398-2.398v-40.38c0-1.322,1.075-2.398,2.398-2.398h12.66v7.529h15.059V160h7.529v-15.059H17.458
	C7.832,144.941,0.001,152.773,0.001,162.398z"/>
<path d="M491.185,144.941H158.118V160h15.08c-4.737,6.297-7.55,14.119-7.55,22.588c0,8.461,2.807,16.278,7.536,22.571h-15.066
	v15.059h44.52c0.22,0.004,0.437,0.017,0.657,0.017v-0.017h122.353v0.017c0.22,0,0.438-0.013,0.657-0.017h164.88
	c11.478,0,20.815-9.337,20.815-20.815v-33.646C512.001,154.279,502.662,144.941,491.185,144.941z M180.706,182.588
	c0-12.456,10.134-22.588,22.588-22.588h122.353c12.455,0,22.588,10.133,22.588,22.588c0,12.236-9.78,22.222-21.932,22.571H202.638
	C190.487,204.81,180.706,194.823,180.706,182.588z M496.942,199.404c0,3.174-2.582,5.756-5.757,5.756H355.758
	c4.729-6.294,7.536-14.11,7.536-22.571c0-8.469-2.812-16.292-7.551-22.588h135.44c3.174,0,5.757,2.582,5.757,5.756L496.942,199.404
	L496.942,199.404z"/>
<rect x="203.295" y="175.054" width="37.647" height="15.059"/>
<rect x="286.118" y="175.054" width="37.647" height="15.059"/>
<g>
	<rect x="451.765" y="175.054" style="fill:#FFFFFF;" width="15.059" height="15.059"/>
	<rect x="421.648" y="175.054" style="fill:#FFFFFF;" width="15.059" height="15.059"/>
</g>
<g>
</g>
<g>
</g>
<g>
</g>
<g>
</g>
<g>
</g>
<g>
</g>
<g>
</g>
<g>
</g>
<g>
</g>
<g>
</g>
<g>
</g>
<g>
</g>
<g>
</g>
<g>
</g>
<g>
</g>
</svg>
